<svg xmlns="http://www.w3.org/2000/svg" viewBox="0 0 462 96" width="462" height="96">
  <g transform="translate(0 9.6) scale(0.8)">
    <line x1="42.7" y1="49.96" x2="58.56" y2="34.94" stroke="#0E86C4" stroke-width="4" stroke-linecap="round"/>
    <line x1="47.43" y1="63.58" x2="62.8" y2="64.98" stroke="#0E86C4" stroke-width="4" stroke-linecap="round" stroke-dasharray="0.1 8"/>
    <line x1="69.85" y1="38.36" x2="72.41" y2="55.37" stroke="#0E86C4" stroke-width="2.5" stroke-linecap="round" stroke-dasharray="0.1 6" opacity="0.65"/>
    <circle cx="30" cy="62" r="15" fill="#E8503F"/>
    <circle cx="68" cy="26" r="8" fill="none" stroke="#0E86C4" stroke-width="5"/>
    <circle cx="74" cy="66" r="6.5" fill="none" stroke="#0E86C4" stroke-width="4.5"/>
    <circle cx="17" cy="21" r="2.6" fill="#0E86C4" opacity="0.55"/>
  </g>
  <path d="M107.98 60.56L102.36 60.56L102.36 27.71L112.75 27.71Q116.04 27.71 118.45 28.93Q120.85 30.14 122.20 32.32Q123.55 34.51 123.55 37.48Q123.55 40.72 121.91 43.19Q120.27 45.67 117.48 46.70L124 60.56L117.70 60.56L111.99 47.51L107.98 47.51L107.98 60.56M107.98 32.66L107.98 42.56L112.75 42.56Q115.14 42.56 116.49 41.26Q117.84 39.95 117.84 37.66Q117.84 35.32 116.49 33.99Q115.14 32.66 112.75 32.66" fill="#141B2E"/>
  <path d="M139.48 61.01Q136.34 61.01 134 59.80Q131.66 58.58 130.37 56.40Q129.09 54.22 129.09 51.29L129.09 45.08Q129.09 42.16 130.37 39.97Q131.66 37.79 134 36.58Q136.34 35.36 139.48 35.36Q142.59 35.36 144.91 36.58Q147.22 37.79 148.51 39.97Q149.79 42.16 149.79 45.08L149.79 49.54L134.53 49.54L134.53 51.29Q134.53 53.90 135.79 55.23Q137.06 56.55 139.53 56.55Q141.42 56.55 142.59 55.90Q143.76 55.25 144.07 53.99L149.61 53.99Q148.98 57.19 146.21 59.10Q143.44 61.01 139.48 61.01M134.53 46.03L144.34 45.94L144.34 45.04Q144.34 42.47 143.13 41.10Q141.91 39.73 139.48 39.73Q137.06 39.73 135.79 41.12Q134.53 42.52 134.53 45.08" fill="#141B2E"/>
  <path d="M178.09 60.56L170.22 60.56Q167.79 60.56 165.97 59.57Q164.15 58.58 163.11 56.76Q162.07 54.94 162.07 52.55L162.07 32.80L154.16 32.80L154.16 27.71L167.70 27.71L167.70 52.55Q167.70 53.90 168.49 54.69Q169.28 55.48 170.63 55.48L178.09 55.48" fill="#141B2E"/>
  <path d="M190.69 61.01Q186.87 61.01 184.66 58.98Q182.46 56.96 182.46 53.54Q182.46 49.90 184.89 47.92Q187.32 45.94 191.78 45.94L197.94 45.94L197.94 43.82Q197.94 42.02 196.77 41.01Q195.60 40 193.57 40Q191.73 40 190.51 40.81Q189.30 41.62 189.07 43.01L183.59 43.01Q183.99 39.50 186.73 37.43Q189.48 35.36 193.75 35.36Q198.30 35.36 200.93 37.63Q203.56 39.91 203.56 43.78L203.56 60.56L198.12 60.56L198.12 56.24L198.03 56.24Q197.67 58.13 196.09 59.39Q194.07 61.01 190.69 61.01M192.54 56.78Q194.93 56.78 196.43 55.57Q197.94 54.35 197.94 52.42L197.94 49.40L191.87 49.40Q190.16 49.40 189.12 50.39Q188.09 51.38 188.09 53Q188.09 54.76 189.28 55.77Q190.47 56.78 192.54 56.78" fill="#141B2E"/>
  <path d="M220.31 68.66L214.41 68.66L217.88 59.21L208.65 35.81L214.81 35.81L219.41 48.45Q219.76 49.49 220.13 50.95Q220.48 52.42 220.66 53.36Q220.89 52.42 221.25 50.95Q221.61 49.49 221.97 48.45L226.29 35.81L232.23 35.81" fill="#141B2E"/>
  <path d="M274.98 60.56L264.40 60.56L264.40 27.71L274.49 27.71Q279.25 27.71 282.05 29.98Q284.83 32.26 284.83 36.17Q284.83 38.38 283.84 40Q282.86 41.62 281.19 42.52Q280.06 43.10 278.76 43.33Q280.25 43.51 281.55 44.09Q283.39 45.04 284.50 46.84Q285.60 48.64 285.60 51.20Q285.60 54.04 284.30 56.15Q282.99 58.27 280.63 59.41Q278.26 60.56 274.98 60.56M269.89 45.80L269.89 55.88L274.62 55.88Q277.10 55.88 278.51 54.55Q279.93 53.23 279.93 50.93Q279.93 48.64 278.51 47.22Q277.10 45.80 274.62 45.80L269.89 45.80M269.89 32.39L269.89 41.26L274.39 41.26Q276.64 41.26 277.93 40.06Q279.21 38.87 279.21 36.80Q279.21 34.73 277.93 33.56Q276.64 32.39 274.39 32.39" fill="#141B2E"/>
  <path d="M301.44 61.01Q296.71 61.01 294.01 58.38Q291.31 55.75 291.31 51.20L291.31 35.81L296.94 35.81L296.94 51.16Q296.94 53.54 298.11 54.82Q299.28 56.11 301.44 56.11Q303.56 56.11 304.75 54.82Q305.94 53.54 305.94 51.16L305.94 35.81L311.56 35.81L311.56 51.20Q311.56 55.75 308.82 58.38Q306.07 61.01 301.44 61.01" fill="#141B2E"/>
  <path d="M338.30 60.56L331.14 60.56Q327.58 60.56 325.58 58.58Q323.58 56.60 323.58 53.14L323.58 40.90L316.88 40.90L316.88 35.81L323.58 35.81L323.58 28.84L329.25 28.84L329.25 35.81L338.75 35.81L338.75 40.90L329.25 40.90L329.25 53.14Q329.25 55.48 331.55 55.48L338.30 55.48" fill="#141B2E"/>
  <path d="M365.30 60.56L358.14 60.56Q354.58 60.56 352.58 58.58Q350.58 56.60 350.58 53.14L350.58 40.90L343.88 40.90L343.88 35.81L350.58 35.81L350.58 28.84L356.25 28.84L356.25 35.81L365.75 35.81L365.75 40.90L356.25 40.90L356.25 53.14Q356.25 55.48 358.55 55.48L365.30 55.48" fill="#141B2E"/>
  <path d="M382.44 60.97Q379.29 60.97 376.97 59.77Q374.65 58.58 373.37 56.40Q372.09 54.22 372.09 51.25L372.09 45.13Q372.09 42.16 373.37 39.97Q374.65 37.79 376.97 36.60Q379.29 35.41 382.44 35.41Q385.63 35.41 387.93 36.60Q390.23 37.79 391.51 39.97Q392.79 42.16 392.79 45.08L392.79 51.25Q392.79 54.22 391.51 56.40Q390.23 58.58 387.93 59.77Q385.63 60.97 382.44 60.97M382.44 56.06Q384.69 56.06 385.93 54.82Q387.17 53.59 387.17 51.25L387.17 45.13Q387.17 42.74 385.93 41.53Q384.69 40.31 382.44 40.31Q380.24 40.31 378.98 41.53Q377.71 42.74 377.71 45.13L377.71 51.25Q377.71 53.59 378.98 54.82Q380.24 56.06 382.44 56.06" fill="#141B2E"/>
  <path d="M405.03 60.56L399.40 60.56L399.40 35.81L404.89 35.81L404.89 40.54L404.99 40.54Q405.30 38.38 406.69 37.07Q408.45 35.36 411.56 35.36Q415.20 35.36 417.38 37.79Q419.56 40.22 419.56 44.31L419.56 60.56L413.94 60.56L413.94 44.90Q413.94 42.65 412.77 41.44Q411.60 40.22 409.49 40.22Q407.42 40.22 406.22 41.48Q405.03 42.74 405.03 45.08" fill="#141B2E"/>
  <path d="M447.24 66.77L425.64 66.77L425.64 61.69L447.24 61.69" fill="#E8503F"/>
</svg>
